<svg width="64" height="64" version="1.1" viewBox="0 0 16.933 16.933" xmlns="http://www.w3.org/2000/svg">
 <path d="m6.0849 2.7784a0.66153 0.66153 0 0 0-0.65991 0.66198v7.4083a0.66153 0.66153 0 0 0 0.65991 0.65991h7.4083a0.66153 0.66153 0 0 0 0.66198-0.65991v-7.4083a0.66153 0.66153 0 0 0-0.66198-0.66198zm0.66198 1.3219h6.0859v6.0859h-6.0859zm-3.3063 1.3245c-0.36504-3.234e-4 -0.66174 0.29486-0.66249 0.65991v7.4083c-3.239e-4 0.36581 0.29668 0.6623 0.66249 0.66198h7.4078c0.36504-7.54e-4 0.66075-0.29693 0.66042-0.66198v-0.55449h-7.4083v-7.5138z" color="#000000" color-rendering="auto" dominant-baseline="auto" fill="#fff" image-rendering="auto" shape-rendering="auto" solid-color="#000000" stop-color="#000000" style="font-feature-settings:normal;font-variant-alternates:normal;font-variant-caps:normal;font-variant-east-asian:normal;font-variant-ligatures:normal;font-variant-numeric:normal;font-variant-position:normal;font-variation-settings:normal;inline-size:0;isolation:auto;mix-blend-mode:normal;shape-margin:0;shape-padding:0;text-decoration-color:#000000;text-decoration-line:none;text-decoration-style:solid;text-indent:0;text-orientation:mixed;text-transform:none;white-space:normal"/>
</svg>
