<svg width="64" height="64" version="1.1" viewBox="0 0 16.933 16.933" xmlns="http://www.w3.org/2000/svg">
 <g fill="#fff">
  <path d="m5.9436 13.758c-1.0583 0-1.7865-0.20743-2.1844-0.6223-0.38947-0.41487-0.5842-0.96097-0.5842-1.6383v-3.9243c0-0.127 0.02963-0.22013 0.0889-0.2794 0.06773-0.06773 0.16933-0.1016 0.3048-0.1016h1.3335c0.13547 0 0.23707 0.03387 0.3048 0.1016 0.06773 0.05927 0.09737 0.1524 0.0889 0.2794v3.302c0 0.2794 0.06773 0.47837 0.2032 0.5969 0.14393 0.11853 0.35983 0.1778 0.6477 0.1778h0.8382l-0.5207-2.0193c-0.0085-0.127 0.0635-0.22013 0.2159-0.2794 0.16087-0.05927 0.30903-0.04657 0.4445 0.0381l4.1148 2.7686c0.11007 0.06773 0.19897 0.14393 0.2667 0.2286 0.0762 0.08467 0.1143 0.1905 0.1143 0.3175s-0.0381 0.23283-0.1143 0.3175c-0.06773 0.08467-0.15663 0.15663-0.2667 0.2159l-4.1148 2.7686c-0.13547 0.09313-0.28363 0.11007-0.4445 0.0508-0.1524-0.06773-0.22437-0.1651-0.2159-0.2921l0.5207-2.0066z" style="white-space:pre"/>
  <path d="m10.99 3.1749c1.0583 0 1.7865 0.20743 2.1844 0.6223 0.38947 0.41487 0.5842 0.96097 0.5842 1.6383v3.9243c0 0.127-0.02963 0.22013-0.0889 0.2794-0.06773 0.06773-0.16933 0.1016-0.3048 0.1016h-1.3335c-0.13547 0-0.23707-0.03387-0.3048-0.1016-0.06773-0.05927-0.09737-0.1524-0.0889-0.2794v-3.302c0-0.2794-0.06773-0.47837-0.2032-0.5969-0.14393-0.11853-0.35983-0.1778-0.6477-0.1778h-0.8382l0.5207 2.0193c0.0085 0.127-0.0635 0.22013-0.2159 0.2794-0.16087 0.05927-0.30903 0.04657-0.4445-0.0381l-4.1148-2.7686c-0.11007-0.06773-0.19897-0.14393-0.2667-0.2286-0.0762-0.08467-0.1143-0.1905-0.1143-0.3175s0.0381-0.23283 0.1143-0.3175c0.06773-0.08467 0.15663-0.15663 0.2667-0.2159l4.1148-2.7686c0.13547-0.09313 0.28363-0.11007 0.4445-0.0508 0.1524 0.06773 0.22437 0.1651 0.2159 0.2921l-0.5207 2.0066z" style="white-space:pre"/>
 </g>
</svg>
