<svg width="64" height="64" version="1.1" viewBox="0 0 16.933 16.933" xmlns="http://www.w3.org/2000/svg">
 <g transform="translate(-.52917 -.52917)" fill="#fff" style="shape-inside:url(#rect1516);white-space:pre" aria-label="🖪">
  <path d="m3.175 14.817v-11.642h11.642v10.799l-0.81962 0.84239zm0.31115-9.6685h1.2446v-1.662h-1.2446zm0.20491-0.19732v-0.56159h0.82721v0.56159zm5.3124 5.6539q0.67543 0 1.146-0.47052 0.47052-0.47811 0.47052-1.146 0-0.66784-0.47052-1.1384-0.47052-0.47811-1.146-0.47811-0.66784 0-1.146 0.47811-0.47052 0.47052-0.47052 1.1384 0 0.66784 0.47052 1.146 0.47811 0.47052 1.146 0.47052zm-0.19732-1.3812v-0.44017h0.43258v0.44017zm-2.2691 5.0923h5.9498v-3.1798h-5.9498zm4.0981-0.44775v-2.2995h1.0625v2.2995z" fill="#fff"/>
 </g>
</svg>
