<svg width="64" height="64" version="1.1" viewBox="0 0 16.933 16.933" xmlns="http://www.w3.org/2000/svg">
 <path d="m7.4146 15.081v-1.1621q-0.54191-0.11144-1.0679-0.31838-0.52597-0.22287-0.98818-0.54126l-0.81286 0.8278-1.5142-1.4964 0.84474-0.81188q-0.31877-0.46166-0.54191-0.98699-0.22314-0.52534-0.33471-1.0825h-1.1476v-2.0854h1.1635q0.11157-0.55717 0.33471-1.0825 0.22314-0.52534 0.52597-0.97107l-0.84474-0.8278 1.5142-1.4805 0.81286 0.81188q0.47815-0.31839 0.98818-0.52534 0.52597-0.22287 1.0679-0.31839v-1.178h2.1039v1.1621q0.54191 0.11143 1.0519 0.3343 0.52597 0.20695 1.0041 0.54125l0.84474-0.8278 1.4823 1.4805-0.8288 0.8278q0.31877 0.46166 0.52597 0.98699 0.2072 0.50942 0.31877 1.0666h1.1635v2.0854h-1.1635q-0.11157 0.57309-0.31877 1.0825-0.2072 0.50942-0.52597 0.98699l0.81286 0.81188-1.4823 1.4964-0.8288-0.8278q-0.47815 0.31838-0.98818 0.54126-0.51003 0.20695-1.0679 0.31838v1.1621zm1.0519-3.2316q0.70129 0 1.307-0.25471 0.6216-0.27063 1.0838-0.73229 0.47815-0.46166 0.73317-1.0666 0.27095-0.62085 0.27095-1.3372 0-0.71637-0.27095-1.3213-0.27095-0.62085-0.73317-1.0825-0.46222-0.46166-1.0838-0.71637-0.60566-0.25471-1.307-0.25471-0.70129 0-1.3229 0.27063-0.60566 0.25471-1.0838 0.71637-0.46221 0.46166-0.73317 1.0825-0.25502 0.60493-0.25502 1.3054 0 0.70045 0.25502 1.3213 0.27095 0.60493 0.73317 1.0825 0.47815 0.46166 1.0838 0.73229 0.6216 0.25471 1.3229 0.25471zm0-1.7193q-0.68535 0-1.1794-0.4935-0.47815-0.4935-0.47815-1.178 0-0.68453 0.47815-1.1621 0.49409-0.4935 1.1794-0.4935 0.68535 0 1.1794 0.47758 0.49409 0.47758 0.49409 1.178 0 0.68453-0.49409 1.178-0.49409 0.4935-1.1794 0.4935z" fill="#fff" style="white-space:pre"/>
</svg>
