<svg width="64" height="64" version="1.1" viewBox="0 0 16.933 16.933" xmlns="http://www.w3.org/2000/svg">
 <path d="m13.783 12.436a1.3229 1.3229 0 0 0 0.91-0.3886 1.3229 1.3229 0 0 0 0-1.8691l-5.291-5.2931a1.3229 1.3229 0 0 0-1.8712 0l-5.291 5.2931a1.3229 1.3229 0 0 0 0 1.8691 1.3229 1.3229 0 0 0 0.96116 0.3886 1.3229 1.3229 0 0 0 0.91-0.3886l4.3557-4.3557 4.3573 4.3557a1.3229 1.3229 0 0 0 0.9591 0.3886z" color="#000000" color-rendering="auto" dominant-baseline="auto" fill="#fff" image-rendering="auto" shape-rendering="auto" solid-color="#000000" stop-color="#000000" style="font-feature-settings:normal;font-variant-alternates:normal;font-variant-caps:normal;font-variant-east-asian:normal;font-variant-ligatures:normal;font-variant-numeric:normal;font-variant-position:normal;font-variation-settings:normal;inline-size:0;isolation:auto;mix-blend-mode:normal;shape-margin:0;shape-padding:0;text-decoration-color:#000000;text-decoration-line:none;text-decoration-style:solid;text-indent:0;text-orientation:mixed;text-transform:none;white-space:normal"/>
</svg>
