<svg width="64" height="64" version="1.1" viewBox="0 0 16.933 16.933" xmlns="http://www.w3.org/2000/svg">
 <path transform="scale(.26458)" d="m11.906 6.998a5 5 0 0 0-3.4395 1.4688 5 5 0 0 0 0 7.0645l16.465 16.467-16.465 16.465a5 5 0 0 0 0 7.0723 5 5 0 0 0 7.0645 0l16.467-16.467 16.465 16.467a5 5 0 0 0 7.0723 0 5 5 0 0 0 0-7.0723l-16.467-16.465 16.467-16.467a5 5 0 0 0 0-7.0645 5 5 0 0 0-3.6328-1.4688 5 5 0 0 0-3.4395 1.4688l-16.465 16.465-16.467-16.465a5 5 0 0 0-3.625-1.4688z" color="#000000" color-rendering="auto" dominant-baseline="auto" fill="#fff" image-rendering="auto" shape-rendering="auto" solid-color="#000000" stop-color="#000000" style="font-feature-settings:normal;font-variant-alternates:normal;font-variant-caps:normal;font-variant-east-asian:normal;font-variant-ligatures:normal;font-variant-numeric:normal;font-variant-position:normal;font-variation-settings:normal;inline-size:0;isolation:auto;mix-blend-mode:normal;shape-margin:0;shape-padding:0;text-decoration-color:#000000;text-decoration-line:none;text-decoration-style:solid;text-indent:0;text-orientation:mixed;text-transform:none;white-space:normal"/>
</svg>
